<svg xmlns="http://www.w3.org/2000/svg" x="0px" y="0px" width="100" height="100" viewBox="0 0 72 72">
<path d="M56 48c2.209 0 4 1.791 4 4 0 2.209-1.791 4-4 4-1.202 0-22.798 0-24 0-2.209 0-4-1.791-4-4 0-2.209 1.791-4 4-4C33.202 48 54.798 48 56 48zM56 32c2.209 0 4 1.791 4 4 0 2.209-1.791 4-4 4-1.202 0-22.798 0-24 0-2.209 0-4-1.791-4-4 0-2.209 1.791-4 4-4C33.202 32 54.798 32 56 32zM56 16c2.209 0 4 1.791 4 4 0 2.209-1.791 4-4 4-1.202 0-22.798 0-24 0-2.209 0-4-1.791-4-4 0-2.209 1.791-4 4-4C33.202 16 54.798 16 56 16zM18 57c-.792 0-1.556-.313-2.121-.879l-3-3c-1.172-1.171-1.172-3.071 0-4.242 1.172-1.172 3.07-1.172 4.242 0l.413.412 1.97-2.955c.918-1.378 2.779-1.751 4.16-.832 1.379.919 1.751 2.782.832 4.16l-4 6c-.498.748-1.306 1.233-2.2 1.321C18.197 56.995 18.098 57 18 57zM18 41c-.792 0-1.556-.313-2.121-.879l-3-3c-1.172-1.171-1.172-3.071 0-4.242 1.172-1.172 3.07-1.172 4.242 0l.413.412 1.97-2.955c.918-1.378 2.779-1.752 4.16-.832 1.379.919 1.751 2.782.832 4.16l-4 6c-.498.748-1.306 1.233-2.2 1.321C18.197 40.995 18.098 41 18 41zM18 25c-.792 0-1.556-.313-2.121-.879l-3-3c-1.172-1.171-1.172-3.071 0-4.242 1.172-1.172 3.07-1.172 4.242 0l.413.412 1.97-2.955c.918-1.378 2.779-1.752 4.16-.832 1.379.919 1.751 2.782.832 4.16l-4 6c-.498.748-1.306 1.233-2.2 1.321C18.197 24.995 18.098 25 18 25z"></path>
</svg>