<svg xmlns="http://www.w3.org/2000/svg" x="0px" y="0px" width="100" height="100" viewBox="0 0 50 50">
<path d="M 25 0.09765625 C 23.019 0.09765625 21.228953 1.0397969 18.751953 2.3417969 C 15.560953 4.0207969 11.188156 6.3183594 3.7851562 7.9433594 L 3 8.1152344 L 3 8.9199219 C 3 39.384922 24.364078 49.600219 24.580078 49.699219 L 25.021484 49.902344 L 25.453125 49.681641 C 25.668125 49.571641 47 38.369922 47 8.9199219 L 47 8.1152344 L 46.214844 7.9433594 C 38.811844 6.3183594 34.439047 4.0207969 31.248047 2.3417969 C 28.771047 1.0397969 26.981 0.09765625 25 0.09765625 z M 25.527344 11 L 26.283203 12.050781 C 30.140203 12.050781 30.626328 15.647109 29.736328 18.412109 C 29.962328 18.478109 30.180328 18.858891 30.111328 19.462891 C 29.982328 20.587891 29.541719 20.873484 29.261719 20.896484 C 29.261719 22.086484 27.356 23.404609 27 23.599609 L 27 25.001953 C 27.854 27.397953 34 26.999047 34 31.998047 L 16 31.998047 C 16 26.999047 22.146 27.398 23 25 L 23 23.599609 C 22.642 23.405609 20.712891 22.138906 20.712891 20.878906 C 20.433891 20.855906 19.993281 20.568359 19.863281 19.443359 C 19.793281 18.839359 20.071281 18.498578 20.238281 18.392578 C 19.011281 14.280578 20.209344 11 25.527344 11 z"></path>
</svg>